<svg xmlns="http://www.w3.org/2000/svg" viewBox="0 0 300 300">
    <!-- 텍스처 패턴 정의 -->
    <defs>
        <!-- 쿠키 질감을 위한 노이즈 필터 -->
        <filter id="noise" x="0%" y="0%" width="100%" height="100%">
            <feTurbulence type="fractalNoise" baseFrequency="0.7" numOctaves="3" result="noise"/>
            <feColorMatrix type="saturate" values="0.1" in="noise" result="noise2"/>
            <feBlend in="SourceGraphic" in2="noise2" mode="multiply"/>
        </filter>

        <!-- 메인 쿠키 그라데이션 -->
        <linearGradient id="cookieGradient" x1="0%" y1="0%" x2="100%" y2="100%">
            <stop offset="0%" style="stop-color:#e6c088;stop-opacity:1" />
            <stop offset="100%" style="stop-color:#d4a76a;stop-opacity:1" />
        </linearGradient>

        <!-- 각 셀의 쿠키 그라데이션 -->
        <linearGradient id="cellCookieGradient" x1="0%" y1="0%" x2="100%" y2="100%">
            <stop offset="0%" style="stop-color:#f0d4a8;stop-opacity:1" />
            <stop offset="100%" style="stop-color:#e6bf89;stop-opacity:1" />
        </linearGradient>

        <!-- 크럼블 패턴 -->
        <pattern id="crumblePattern" width="10" height="10" patternUnits="userSpaceOnUse">
            <circle cx="5" cy="5" r="1" fill="#ba8c4e" fill-opacity="0.1"/>
        </pattern>
    </defs>

    <!-- 메인 배경 (큰 쿠키) -->
    <rect width="300" height="300" fill="url(#cookieGradient)" rx="15" ry="15" filter="url(#noise)"/>
    <rect width="300" height="300" fill="url(#crumblePattern)" rx="15" ry="15" opacity="0.5"/>

    <!-- 각 셀 (작은 쿠키들) -->
    <!-- 첫 번째 줄 -->
    <g transform="translate(10,10)">
        <rect width="90" height="90" fill="url(#cellCookieGradient)" rx="10" ry="10" 
              stroke="#ba8c4e" stroke-width="2" filter="url(#noise)"/>
        <circle cx="45" cy="45" r="2" fill="#8b5e2e" opacity="0.3"/>
        <circle cx="25" cy="65" r="2" fill="#8b5e2e" opacity="0.3"/>
        <circle cx="65" cy="25" r="2" fill="#8b5e2e" opacity="0.3"/>
    </g>

    <g transform="translate(105,10)">
        <rect width="90" height="90" fill="url(#cellCookieGradient)" rx="10" ry="10"
              stroke="#ba8c4e" stroke-width="2" filter="url(#noise)"/>
        <circle cx="45" cy="45" r="2" fill="#8b5e2e" opacity="0.3"/>
        <circle cx="25" cy="65" r="2" fill="#8b5e2e" opacity="0.3"/>
        <circle cx="65" cy="25" r="2" fill="#8b5e2e" opacity="0.3"/>
    </g>

    <g transform="translate(200,10)">
        <rect width="90" height="90" fill="url(#cellCookieGradient)" rx="10" ry="10"
              stroke="#ba8c4e" stroke-width="2" filter="url(#noise)"/>
        <circle cx="45" cy="45" r="2" fill="#8b5e2e" opacity="0.3"/>
        <circle cx="25" cy="65" r="2" fill="#8b5e2e" opacity="0.3"/>
        <circle cx="65" cy="25" r="2" fill="#8b5e2e" opacity="0.3"/>
    </g>

    <!-- 두 번째 줄 -->
    <g transform="translate(10,105)">
        <rect width="90" height="90" fill="url(#cellCookieGradient)" rx="10" ry="10"
              stroke="#ba8c4e" stroke-width="2" filter="url(#noise)"/>
        <circle cx="45" cy="45" r="2" fill="#8b5e2e" opacity="0.3"/>
        <circle cx="25" cy="65" r="2" fill="#8b5e2e" opacity="0.3"/>
        <circle cx="65" cy="25" r="2" fill="#8b5e2e" opacity="0.3"/>
    </g>

    <g transform="translate(105,105)">
        <rect width="90" height="90" fill="url(#cellCookieGradient)" rx="10" ry="10"
              stroke="#ba8c4e" stroke-width="2" filter="url(#noise)"/>
        <circle cx="45" cy="45" r="2" fill="#8b5e2e" opacity="0.3"/>
        <circle cx="25" cy="65" r="2" fill="#8b5e2e" opacity="0.3"/>
        <circle cx="65" cy="25" r="2" fill="#8b5e2e" opacity="0.3"/>
    </g>

    <g transform="translate(200,105)">
        <rect width="90" height="90" fill="url(#cellCookieGradient)" rx="10" ry="10"
              stroke="#ba8c4e" stroke-width="2" filter="url(#noise)"/>
        <circle cx="45" cy="45" r="2" fill="#8b5e2e" opacity="0.3"/>
        <circle cx="25" cy="65" r="2" fill="#8b5e2e" opacity="0.3"/>
        <circle cx="65" cy="25" r="2" fill="#8b5e2e" opacity="0.3"/>
    </g>

    <!-- 세 번째 줄 -->
    <g transform="translate(10,200)">
        <rect width="90" height="90" fill="url(#cellCookieGradient)" rx="10" ry="10"
              stroke="#ba8c4e" stroke-width="2" filter="url(#noise)"/>
        <circle cx="45" cy="45" r="2" fill="#8b5e2e" opacity="0.3"/>
        <circle cx="25" cy="65" r="2" fill="#8b5e2e" opacity="0.3"/>
        <circle cx="65" cy="25" r="2" fill="#8b5e2e" opacity="0.3"/>
    </g>

    <g transform="translate(105,200)">
        <rect width="90" height="90" fill="url(#cellCookieGradient)" rx="10" ry="10"
              stroke="#ba8c4e" stroke-width="2" filter="url(#noise)"/>
        <circle cx="45" cy="45" r="2" fill="#8b5e2e" opacity="0.3"/>
        <circle cx="25" cy="65" r="2" fill="#8b5e2e" opacity="0.3"/>
        <circle cx="65" cy="25" r="2" fill="#8b5e2e" opacity="0.3"/>
    </g>

    <g transform="translate(200,200)">
        <rect width="90" height="90" fill="url(#cellCookieGradient)" rx="10" ry="10"
              stroke="#ba8c4e" stroke-width="2" filter="url(#noise)"/>
        <circle cx="45" cy="45" r="2" fill="#8b5e2e" opacity="0.3"/>
        <circle cx="25" cy="65" r="2" fill="#8b5e2e" opacity="0.3"/>
        <circle cx="65" cy="25" r="2" fill="#8b5e2e" opacity="0.3"/>
    </g>
</svg>
